<svg id="icon_Yin_Yang" data-name="icon/Yin Yang" xmlns="http://www.w3.org/2000/svg" width="24" height="24" viewBox="0 0 24 24">
  <path id="Path" d="M12.846,7.069A5.8,5.8,0,0,1,10.882,4.83h1.164a.685.685,0,0,0,.727-.722.685.685,0,0,0-.727-.722H10.882l1.746-1.9A.774.774,0,0,0,12.41.47a.786.786,0,0,0-1.018.217L11.246.9,10.882.542a1.853,1.853,0,0,0-2.619,0,.445.445,0,0,1-.582,0,1.853,1.853,0,0,0-2.619,0L4.7.9,4.554.686A.786.786,0,0,0,3.536.47a.774.774,0,0,0-.218,1.011L5.5,4.035l-.145.289A6.151,6.151,0,0,1,3.172,7.069a6.86,6.86,0,0,0-3.128,6.5,7.2,7.2,0,0,0,4.8,5.851A8.906,8.906,0,0,0,7.973,20a9.641,9.641,0,0,0,3.2-.578,7.324,7.324,0,0,0,4.8-5.851A7.156,7.156,0,0,0,12.846,7.069Z" transform="translate(4 2)" fill="rgba(14,32,69,0.3)"/>
  <path id="Path-2" data-name="Path" d="M4,8.9A1.028,1.028,0,0,1,3,10,.945.945,0,0,1,2,9,.945.945,0,0,1,1,8,.945.945,0,0,1,2,7H3.5a.5.5,0,0,0,0-1h-1A2.473,2.473,0,0,1,2,1.1V1A.945.945,0,0,1,3,0,.945.945,0,0,1,4,1,.945.945,0,0,1,5,2,.945.945,0,0,1,4,3H2.5a.472.472,0,0,0-.5.5.472.472,0,0,0,.5.5h1A2.473,2.473,0,0,1,4,8.9Z" transform="translate(9 9.5)" fill="#0e2045"/>
</svg>
