<svg id="icon_Yin_Yang" data-name="icon/Yin Yang" xmlns="http://www.w3.org/2000/svg" width="24" height="24" viewBox="0 0 24 24">
  <path id="Combined_Shape" data-name="Combined Shape" d="M15.576,11.04a1,1,0,0,1,0-1.414,5.559,5.559,0,0,0,0-7.919A1,1,0,1,1,16.99.293a7.559,7.559,0,0,1,0,10.748,1,1,0,0,1-1.414,0Zm-13.334,0a7.559,7.559,0,0,1,0-10.748A1,1,0,0,1,3.657,1.707a5.559,5.559,0,0,0,0,7.919A1,1,0,1,1,2.243,11.04ZM4.595,8.725a4.182,4.182,0,0,1-.151-5.965A1,1,0,0,1,5.857,4.174a2.183,2.183,0,0,0,.115,3.1,1,1,0,1,1-1.378,1.45Zm8.781-.151a1,1,0,0,1-.083-1.319l.083-.095a2.176,2.176,0,0,0,.009-2.975l-.123-.127a1,1,0,1,1,1.377-1.45,4.183,4.183,0,0,1,.152,5.965,1,1,0,0,1-1.415,0Z" transform="translate(2.3 2.67)" fill="rgba(14,32,69,0.3)"/>
  <path id="Combined_Shape-2" data-name="Combined Shape" d="M1,16a1,1,0,0,1-.116-1.993L1,14H2.224L4.78,4.072a2.333,2.333,0,1,1,3.095.011L10.441,14h1.226a1,1,0,0,1,.117,1.993L11.667,16Zm7.375-2-.863-3.334H5.148L4.29,14ZM6.995,8.667,6.327,6.085,5.662,8.667ZM6,2.334A.333.333,0,1,0,6.333,2,.334.334,0,0,0,6,2.334Z" transform="translate(5.583 6.003)" fill="#0e2045"/>
</svg>
