<svg id="icon_Yin_Yang" data-name="icon/Yin Yang" xmlns="http://www.w3.org/2000/svg" width="24" height="24" viewBox="0 0 24 24">
  <path id="Path" d="M17.687,1.634,16.3.247a.837.837,0,0,0-1.187,0L6.725,8.634l-3.9-3.9a.837.837,0,0,0-1.187,0L.247,6.12a.841.841,0,0,0,0,1.191L6.13,13.2a.837.837,0,0,0,1.187,0L17.683,2.824A.844.844,0,0,0,17.687,1.634Z" transform="translate(3.033 7.523)" fill="#0e2045"/>
  <path id="Path-2" data-name="Path" d="M4.085,9.834a.556.556,0,0,0,.791,0l7.284-7.291a.562.562,0,0,0,0-.791L10.578.165a.556.556,0,0,0-.791,0L4.481,5.471,2.541,3.527a.556.556,0,0,0-.791,0L.163,5.114a.562.562,0,0,0,0,.791Z" transform="translate(5.278 3.034)" fill="rgba(14,32,69,0.3)"/>
</svg>
