<svg id="icon_Yin_Yang" data-name="icon/Yin Yang" xmlns="http://www.w3.org/2000/svg" width="24" height="24" viewBox="0 0 24 24">
  <rect id="Rectangle-7" width="7" height="7" rx="1.5" transform="translate(4 4)" fill="#0e2045"/>
  <path id="Combined-Shape" d="M14.5,16h-4A1.5,1.5,0,0,1,9,14.5v-4A1.5,1.5,0,0,1,10.5,9h4A1.5,1.5,0,0,1,16,10.5v4A1.5,1.5,0,0,1,14.5,16Zm-9,0h-4A1.5,1.5,0,0,1,0,14.5v-4A1.5,1.5,0,0,1,1.5,9h4A1.5,1.5,0,0,1,7,10.5v4A1.5,1.5,0,0,1,5.5,16Zm9-9h-4A1.5,1.5,0,0,1,9,5.5v-4A1.5,1.5,0,0,1,10.5,0h4A1.5,1.5,0,0,1,16,1.5v4A1.5,1.5,0,0,1,14.5,7Z" transform="translate(4 4)" fill="rgba(14,32,69,0.3)"/>
</svg>
