<svg id="icon_Yin_Yang" data-name="icon/Yin Yang" xmlns="http://www.w3.org/2000/svg" width="24" height="24" viewBox="0 0 24 24">
  <path id="Combined_Shape" data-name="Combined Shape" d="M9.791,20A10,10,0,0,1,10,0a5,5,0,1,1,0,10,5,5,0,0,0-.21,10ZM10,4a1,1,0,1,0,1,1A1,1,0,0,0,10,4Z" transform="translate(2 2)" fill="rgba(14,32,69,0.3)"/>
  <path id="Combined_Shape-2" data-name="Combined Shape" d="M9.791,20A10,10,0,0,1,10,0a5,5,0,1,1,0,10,5,5,0,0,0-.21,10ZM10,4a1,1,0,1,0,1,1A1,1,0,0,0,10,4Z" transform="translate(22 22) rotate(-180)" fill="#0e2045"/>
</svg>
