<svg id="icon_Yin_Yang" data-name="icon/Yin Yang" xmlns="http://www.w3.org/2000/svg" width="24" height="24" viewBox="0 0 24 24">
  <path id="Shape" d="M17.25,6H.75A.751.751,0,0,1,0,5.25V3.75A.751.751,0,0,1,.75,3H3.888a2.24,2.24,0,0,1-.138-.75A2.253,2.253,0,0,1,6,0,3.563,3.563,0,0,1,9,1.909,3.569,3.569,0,0,1,12,0a2.253,2.253,0,0,1,2.25,2.25,2.238,2.238,0,0,1-.138.75H17.25A.751.751,0,0,1,18,3.75v1.5A.751.751,0,0,1,17.25,6ZM12,1.5A2.341,2.341,0,0,0,10.1,3H12a.75.75,0,1,0,0-1.5Zm-6,0A.75.75,0,1,0,6,3H7.9A2.34,2.34,0,0,0,6,1.5Z" transform="translate(3 3)" fill="rgba(14,32,69,0.3)"/>
  <path id="Combined_Shape" data-name="Combined Shape" d="M8.25,10.5V0H15V9.75a.751.751,0,0,1-.751.751Zm-7.5,0A.751.751,0,0,1,0,9.75V0H6.75V10.5Z" transform="translate(4.5 10.5)" fill="#0e2045"/>
</svg>
