<svg id="icon_Yin_Yang" data-name="icon/Yin Yang" xmlns="http://www.w3.org/2000/svg" width="24" height="24" viewBox="0 0 24 24">
  <path id="Combined_Shape" data-name="Combined Shape" d="M13.208,7.641a.888.888,0,0,1,.9-.914.929.929,0,0,1,.847.562l.065.12a1.569,1.569,0,0,0,1.521.85c.943,0,1.485-.464,1.485-1.213A1.247,1.247,0,0,0,16.7,5.8l-.141,0h-.811a.91.91,0,0,1-.934-.908.885.885,0,0,1,.83-.9l.1-.005h.766A1.119,1.119,0,0,0,17.73,2.874c0-.648-.472-1.07-1.246-1.07a1.214,1.214,0,0,0-1.225.778.972.972,0,0,1-.935.766.9.9,0,0,1-.908-.954C13.416,1.072,14.783,0,16.51,0,18.345,0,19.7,1.133,19.7,2.731a2.634,2.634,0,0,1-.853,1.908l-.122.105-.044.033.113.068a2.649,2.649,0,0,1,1.184,1.9l.015.17,0,.153c0,1.765-1.459,3-3.477,3C14.722,10.06,13.208,8.954,13.208,7.641ZM2.177,9.011l0-.112V2.627l-.612.446a1.383,1.383,0,0,1-.473.238L.97,3.334.85,3.341A.857.857,0,0,1,0,2.478a1.026,1.026,0,0,1,.438-.8L.55,1.593,1.86.621A1.833,1.833,0,0,1,3,.136,1.1,1.1,0,0,1,4.114,1.182l.005.115V8.9a.951.951,0,0,1-.974,1.038A.944.944,0,0,1,2.177,9.011Zm4.907.861A1.053,1.053,0,0,1,5.9,8.854a1.45,1.45,0,0,1,.489-1L9.192,4.643c.675-.77.909-1.23.909-1.718A1.086,1.086,0,0,0,8.875,1.816,1.213,1.213,0,0,0,7.628,2.849a.971.971,0,0,1-.94.828.942.942,0,0,1-.941-1.005A2.959,2.959,0,0,1,8.946,0a2.9,2.9,0,0,1,3.133,2.854,3.948,3.948,0,0,1-1.287,2.7l-.314.365L8.612,8.05h2.753a.917.917,0,0,1,.958.7l.015.1.006.107a.883.883,0,0,1-.868.9l-.113,0Z" transform="translate(2 7)" fill="#0e2045"/>
</svg>
