<svg id="icon_Yin_Yang" data-name="icon/Yin Yang" xmlns="http://www.w3.org/2000/svg" width="24" height="24" viewBox="0 0 24 24">
  <path id="Combined_Shape" data-name="Combined Shape" d="M9.5,19.523H9.473a2.381,2.381,0,1,1,2.042-3.588A5.7,5.7,0,0,0,15,11.27l0-.241V8.971a6.082,6.082,0,0,0-12.161-.22l0,.22v2.057H0V8.971a8.924,8.924,0,0,1,17.845-.257l0,.257v2.057c0,4.168-3.561,7.438-7.585,8.359a2.351,2.351,0,0,1-.692.134l-.067.011Z" transform="translate(3 2)" fill="rgba(14,32,69,0.3)"/>
  <path id="Combined_Shape-2" data-name="Combined Shape" d="M12.164,7.143V1.428A1.425,1.425,0,0,1,13.586,0a4.108,4.108,0,0,1,4.263,4.286,4.108,4.108,0,0,1-4.263,4.286A1.425,1.425,0,0,1,12.164,7.143ZM0,4.286A4.277,4.277,0,0,1,4.263,0,1.425,1.425,0,0,1,5.684,1.428V7.143A1.425,1.425,0,0,1,4.263,8.572,4.277,4.277,0,0,1,0,4.286Z" transform="translate(3 8.667)" fill="#0e2045"/>
</svg>
