<svg xmlns="http://www.w3.org/2000/svg" width="24" height="24" viewBox="0 0 24 24">
    <g fill="none" fill-rule="evenodd">
        <g fill="#0E2045">
            <g>
                <g>
                    <g>
                        <g>
                            <path fill-opacity=".3" d="M19.5 17c.828 0 1.5.672 1.5 1.5s-.672 1.5-1.5 1.5h-15c-.828 0-1.5-.672-1.5-1.5S3.672 17 4.5 17h15zm0-6c.828 0 1.5.672 1.5 1.5s-.672 1.5-1.5 1.5h-15c-.828 0-1.5-.672-1.5-1.5S3.672 11 4.5 11h15zm0-6c.828 0 1.5.672 1.5 1.5S20.328 8 19.5 8h-15C3.672 8 3 7.328 3 6.5S3.672 5 4.5 5h15z" transform="translate(-347 -28) translate(135 16) translate(200) translate(4 4) translate(8 8)"/>
                            <path d="M13.5 16c1.38 0 2.5 1.12 2.5 2.5S14.88 21 13.5 21 11 19.88 11 18.5s1.12-2.5 2.5-2.5zm-8-6C6.88 10 8 11.12 8 12.5S6.88 15 5.5 15 3 13.88 3 12.5 4.12 10 5.5 10zm13-6C19.88 4 21 5.12 21 6.5S19.88 9 18.5 9 16 7.88 16 6.5 17.12 4 18.5 4z" transform="translate(-347 -28) translate(135 16) translate(200) translate(4 4) translate(8 8)"/>
                        </g>
                    </g>
                </g>
            </g>
        </g>
    </g>
</svg>
