<svg xmlns="http://www.w3.org/2000/svg" width="32" height="32" viewBox="0 0 32 32">
    <defs>
        <filter id="nbt3w8m2aa">
            <feColorMatrix in="SourceGraphic" values="0 0 0 0 1.000000 0 0 0 0 1.000000 0 0 0 0 1.000000 0 0 0 1.000000 0"/>
        </filter>
    </defs>
    <g fill="none" fill-rule="evenodd">
        <g>
            <g>
                <g>
                    <g rm="url(#nbt3w8m2aa)" transform="translate(-246 -5076) translate(8 5026) translate(221 42) translate(4 8)">
                        <g fill="#fff">
                            <path fill-opacity=".3" d="M18.72 7.94c-.502 5.021-2.009 7.709-4.52 8.06 0 0 2.26-8.814-.754-13.333 0 0-.32 4.842-3.548 10.654-1.514 2.724-3.231 4.56-3.231 8.178 0 5.166 5.29 7.834 9.048 7.834s9.03-1.808 9.03-8.135c0-2.602-2.008-7.021-6.026-13.258z" transform="translate(13)"/>
                            <path d="M16 28c-2.24.026-4-1.68-4-3.816 0-4.134 4.73-2.87 7.333-8.184 0 0 2 4.53 2 6.667 0 4.075-2.515 5.3-5.333 5.333z" transform="translate(13)"/>
                        </g>
                    </g>
                </g>
            </g>
        </g>
    </g>
</svg>
