<svg xmlns="http://www.w3.org/2000/svg" width="32" height="32" viewBox="0 0 32 32">
    <defs>
        <filter id="5nkewvrmba">
            <feColorMatrix in="SourceGraphic" values="0 0 0 0 1.000000 0 0 0 0 1.000000 0 0 0 0 1.000000 0 0 0 1.000000 0"/>
        </filter>
    </defs>
    <g fill="none" fill-rule="evenodd">
        <g>
            <g>
                <g>
                    <g rm="url(#5nkewvrmba)" transform="translate(-25 -5076) translate(8 5026) translate(0 42) translate(4 8)">
                        <g fill="#fff">
                            <path fill-opacity=".3" d="M16 4c6.627 0 12 5.373 12 12s-5.373 12-12 12S4 22.627 4 16 9.373 4 16 4zm2.667 9.333h-5.334v5.334h5.334v-5.334z" transform="translate(13)"/>
                            <path d="M21.333 6.667c0 2.051 1.544 3.742 3.534 3.973l.466.027c-2.209 0-4 1.79-4 4 0-2.21-1.79-4-4-4 2.052 0 3.742-1.544 3.973-3.534l.027-.466zM24 13.333c0 1.368 1.03 2.495 2.356 2.65l.31.017C25.195 16 24 17.194 24 18.667 24 17.194 22.806 16 21.333 16c1.368 0 2.495-1.03 2.65-2.356l.017-.31zM10.667 20c0 1.368 1.03 2.495 2.355 2.649l.311.018c-1.472 0-2.666 1.194-2.666 2.666 0-1.472-1.194-2.666-2.667-2.666 1.368 0 2.495-1.03 2.649-2.356l.018-.311z" transform="translate(13)"/>
                        </g>
                    </g>
                </g>
            </g>
        </g>
    </g>
</svg>
