<svg xmlns="http://www.w3.org/2000/svg" width="38" height="38" viewBox="0 0 38 38">
    <g fill="none" fill-rule="evenodd">
        <g>
            <g>
                <g>
                    <g>
                        <g>
                            <path fill="#FF5C5C" d="M11.407 25.926h3.112c1.762 0 3.11-1.348 3.11-3.111V9.333c0-1.763-1.348-3.11-3.11-3.11h-3.112c-1.763 0-3.11 1.347-3.11 3.11v13.482c0 1.763 1.347 3.11 3.11 3.11z" transform="translate(-472 -533) translate(435 280) translate(0 240) translate(16 13) translate(21.333 .333)"/>
                            <path fill="#838FA3" d="M31.111 9.333H19.704v13.482c0 2.904-2.282 5.185-5.185 5.185h-3.112c-2.903 0-5.185-2.281-5.185-5.185V9.333c-1.763 0-3.11 1.348-3.11 3.111v14.519c0 1.763 1.347 3.111 3.11 3.111h24.89c1.762 0 3.11-1.348 3.11-3.111V12.444c0-1.763-1.348-3.11-3.11-3.11zm-7.57 16.282c-.208.207-.415.31-.726.31-.104 0-.311 0-.415-.103-.104-.103-.207-.103-.311-.207-.208-.208-.311-.415-.311-.726s.103-.519.31-.726c.105-.104.208-.207.312-.207.415-.208.83-.104 1.14.207.208.207.312.415.312.726s-.104.518-.311.726zm0-3.111c-.208.207-.415.31-.726.31s-.519-.103-.726-.31c-.104-.104-.208-.208-.208-.311 0-.104-.103-.312-.103-.415 0-.311.103-.519.31-.726.312-.311.727-.415 1.142-.208.103.104.207.104.31.208.208.207.312.415.312.726 0 .31-.104.518-.311.726zm0-3.111c-.208.207-.415.31-.726.31s-.519-.103-.726-.31c-.208-.208-.311-.415-.311-.726 0-.104 0-.311.103-.415.104-.104.104-.208.208-.311.415-.415 1.037-.415 1.452 0 .207.207.31.415.31.726 0 .31-.103.518-.31.726zm3.11 6.222c-.207.207-.414.31-.725.31s-.519-.103-.726-.31c-.207-.208-.311-.415-.311-.726s.104-.519.311-.726c.415-.415 1.037-.415 1.452 0 .207.207.311.415.311.726s-.104.518-.311.726zm0-3.111c-.207.207-.414.31-.725.31s-.519-.103-.726-.31c-.207-.208-.311-.415-.311-.726 0-.104 0-.311.104-.415.103-.104.103-.207.207-.311.415-.415 1.037-.415 1.452 0 .104.104.207.207.207.311.104.104.104.311.104.415 0 .31-.104.518-.311.726zm0-3.111c-.207.207-.414.31-.725.31s-.519-.103-.726-.31c-.207-.208-.311-.415-.311-.726 0-.104 0-.311.104-.415.103-.104.103-.208.207-.311.415-.415 1.037-.415 1.452 0 .207.207.311.415.311.726 0 .31-.104.518-.311.726zm3.112 6.222c-.207.207-.415.31-.726.31s-.518-.103-.726-.31c-.207-.208-.311-.415-.311-.726s.104-.519.311-.726c.104-.104.208-.207.311-.207.415-.104.83-.104 1.141.207.207.207.311.415.311.726s-.104.518-.311.726zm0-3.111c-.207.207-.415.31-.726.31s-.518-.103-.726-.31c-.207-.208-.311-.415-.311-.726s.104-.519.311-.726c.415-.415 1.037-.415 1.452 0 .207.207.311.415.311.726 0 .31-.104.518-.311.726zm0-3.111c-.207.207-.415.31-.726.31s-.518-.103-.726-.31c-.207-.208-.311-.415-.311-.726s.104-.519.311-.726c.104-.104.208-.208.311-.208.208-.103.519-.103.83 0 .104.104.207.104.311.208.207.207.311.415.311.726 0 .31-.104.518-.311.726zm-.726-3.837h-6.222c-.622 0-1.037-.415-1.037-1.037 0-.623.415-1.038 1.037-1.038h6.222c.622 0 1.037.415 1.037 1.038 0 .622-.415 1.037-1.037 1.037z" transform="translate(-472 -533) translate(435 280) translate(0 240) translate(16 13) translate(21.333 .333)"/>
                        </g>
                    </g>
                </g>
            </g>
        </g>
    </g>
</svg>
