<?xml version="1.0" encoding="UTF-8"?>
<svg width="45px" height="17px" viewBox="0 0 45 17" version="1.1" xmlns="http://www.w3.org/2000/svg" xmlns:xlink="http://www.w3.org/1999/xlink">
    <!-- Generator: Sketch 62 (91390) - https://sketch.com -->
    <title>reddi/reddi-big</title>
    <desc>Created with Sketch.</desc>
    <g id="Home-" stroke="none" stroke-width="1" fill="none" fill-rule="evenodd">
        <g id="reddi-big" fill="#EC1C24" fill-rule="nonzero">
            <path d="M20.2303574,5.63024345 L20.2303574,9.55033904 C18.8228003,8.57248814 16.7686467,8.44384642 14.8314963,9.90410376 C12.2389521,13.2705184 14.6106857,16.9733251 17.8595034,16.9733251 C18.9561182,16.9758565 20.0086236,16.5468618 20.784462,15.7811186 C21.5603005,15.0153755 21.9956086,13.9759164 21.9942058,12.8924161 L21.9942058,5.63024345 L20.2303574,5.63024345 Z M19.5978364,14.6012649 C17.0703917,16.5187218 14.1884186,13.6720892 16.1308474,11.1757445 C18.6530137,9.25828757 21.5332274,12.1049202 19.5978364,14.6012649 Z M29.679464,5.63024345 L29.679464,9.55033904 C28.271907,8.57248814 26.2186331,8.44384642 24.2814826,9.90410376 C21.6880587,13.2705184 24.0606721,16.9733172 27.3086101,16.9733172 C28.4048672,16.9746984 29.4566915,16.5453314 30.2322754,15.7798395 C31.0078593,15.0143475 31.4435434,13.9755617 31.4433091,12.8924161 L31.4433091,5.63024345 L29.679464,5.63024345 Z M29.0425445,14.6047417 C26.5159795,16.5221986 23.6340064,13.675566 25.5755554,11.1792213 C28.1021204,9.25828757 30.9840935,12.1049202 29.0425445,14.6012649 L29.0425445,14.6047417 Z M5.97708249,13.7520557 L5.97708249,12.0136541 L10.2877261,12.0136541 L10.2877261,13.7520557 L5.97708249,13.7520557 Z M5.93309633,16.9680986 L5.93309633,15.229697 L12.7993357,15.229697 L12.7993357,16.9680986 L5.93309633,16.9680986 Z M35.4240564,16.9680986 L33.66461,16.9680986 L33.66461,8.79761115 L35.4240564,8.79761115 L35.4240564,16.9680986 Z M37.2987465,4.15260209 L37.3031451,2.27165157 L40.4912619,0.803571429 L40.4859835,2.68365275 L37.2987465,4.15260209 Z M40.4912619,4.57764128 L40.4965402,2.69755996 L43.6837773,1.22947982 L43.6837773,2.37334807 C43.6809608,2.82115242 43.4172196,3.22726134 43.0063904,3.41638902 L40.4912619,4.57764128 Z M41.9225715,7.04790994 L37.1192829,7.05747115 L44.7244898,3.87793464 L44.2300854,5.38773642 C43.9051022,6.37573558 42.9740135,7.04526982 41.9225715,7.04704074 L41.9225715,7.04790994 Z M34.5443332,7.23044211 L34.5443332,7.23044211 C34.0584755,7.23044211 33.66461,6.84128766 33.66461,6.36124132 L33.66461,6.36124132 C33.66461,5.88119497 34.0584755,5.49204052 34.5443332,5.49204052 L34.5443332,5.49204052 C35.0301909,5.49204052 35.4240564,5.88119497 35.4240564,6.36124132 L35.4240564,6.36124132 C35.4235709,6.84094818 35.0298475,7.22957315 34.5443332,7.22957291 L34.5443332,7.23044211 Z M12.7993357,8.79500354 L12.7993357,10.4734303 L5.37623156,10.4734303 C5.23359841,10.4733217 5.09109812,10.4820307 4.94956582,10.4995063 C3.27955326,10.7091702 2.0278676,12.1130885 2.02800515,13.7763933 L2.02800515,16.969837 L0.298469388,16.969837 L0.298469388,8.79934955 L2.02800515,8.79934955 L2.02800515,10.1900708 C3.01351613,9.29458868 4.30388844,8.7981416 5.64278768,8.79934955 L12.7993357,8.79500354 Z" id="Shape"></path>
        </g>
    </g>
</svg>