<svg xmlns="http://www.w3.org/2000/svg" width="32" height="32" viewBox="0 0 32 32">
    <defs>
        <filter id="9udo65mh7a">
            <feColorMatrix in="SourceGraphic" values="0 0 0 0 1.000000 0 0 0 0 1.000000 0 0 0 0 1.000000 0 0 0 1.000000 0"/>
        </filter>
    </defs>
    <g fill="none" fill-rule="evenodd">
        <g>
            <g>
                <g>
                    <g rm="url(#9udo65mh7a)" transform="translate(-172 -5076) translate(8 5026) translate(147 42) translate(4 8)">
                        <g fill="#fff">
                            <path d="M13.333 27.967c-3.733 0-6.666-2.934-6.666-6.667 0-3.2 4.666-10.133 5.6-11.467.533-.666 1.733-.666 2.133 0C15.333 11.167 20 18.1 20 21.3c0 3.733-2.933 6.667-6.667 6.667z" transform="translate(13)"/>
                            <path fill-opacity=".3" d="M22.667 15.967c-2.24 0-4-1.68-4-3.817 0-1.832 2.8-5.8 3.36-6.564.32-.381 1.04-.381 1.28 0 .56.763 3.36 4.732 3.36 6.564 0 2.137-1.76 3.817-4 3.817z" transform="translate(13)"/>
                        </g>
                    </g>
                </g>
            </g>
        </g>
    </g>
</svg>
