<svg xmlns="http://www.w3.org/2000/svg" width="80" height="32" viewBox="0 0 80 32">
    <g fill="none" fill-rule="evenodd">
        <g>
            <g>
                <g>
                    <g>
                        <g>
                            <path fill="#8A8B8A" d="M1.78.463C.147 1.403-.416 3.507.524 5.139l7.119 12.329c.942 1.63 3.044 2.193 4.675 1.251 1.631-.94 2.196-3.044 1.253-4.675L6.455 1.715C5.513.084 3.408-.479 1.779.463" transform="translate(-451 -696) translate(435 280) translate(0 400) translate(16 16) translate(20 4)"/>
                            <path fill="#E9832F" d="M19.436.463c1.631.94 2.195 3.044 1.254 4.676l-7.118 12.329c-.943 1.63-3.046 2.193-4.677 1.251-1.63-.94-2.193-3.044-1.251-4.675L14.76 1.715C15.703.084 17.807-.479 19.436.463M27.398 18.72c-1.631-.942-2.195-3.047-1.255-4.676l7.12-12.329C34.205.085 36.309-.479 37.94.462c1.631.942 2.194 3.045 1.253 4.675l-7.119 12.33c-.942 1.632-3.044 2.193-4.675 1.252M18.13 18.72c-1.632-.942-2.196-3.047-1.255-4.676l7.12-12.329c.941-1.63 3.044-2.194 4.674-1.253 1.632.942 2.195 3.045 1.254 4.675l-7.118 12.33c-.942 1.632-3.045 2.193-4.675 1.252" transform="translate(-451 -696) translate(435 280) translate(0 400) translate(16 16) translate(20 4)"/>
                            <path fill="#8A8B8A" d="M2.045 25.505L1.687 25.505.079 21.331.718 21.331 1.864 24.441 3.015 21.331 3.649 21.331zM4.247 25.505h.563v-3.153h-.563v3.153zm0-3.523h.563v-.65h-.563v.65zM8.323 23.625c-.07-.26-.193-.46-.367-.603-.174-.142-.382-.213-.625-.213-.248 0-.464.074-.646.22-.183.145-.308.343-.377.596h2.015zm-2.032.51c.048.263.166.477.357.64.19.164.415.246.676.246.187 0 .358-.045.512-.136.153-.09.276-.217.367-.382h.64c-.144.35-.347.62-.608.805-.262.186-.565.279-.91.279-.234 0-.447-.042-.64-.124-.193-.082-.368-.206-.525-.37-.146-.155-.262-.335-.345-.54-.083-.206-.125-.416-.125-.63 0-.222.038-.429.114-.622.074-.193.186-.369.333-.528.157-.172.334-.301.53-.388.198-.087.413-.13.646-.13.277 0 .535.064.772.193.238.129.435.31.59.54.091.144.16.3.203.472.044.171.066.366.066.585v.09H6.291zM10.015 25.505L10.015 22.869 9.567 22.869 9.567 22.352 10.015 22.352 10.015 21.331 10.58 21.331 10.58 22.352 11.027 22.352 11.027 22.869 10.58 22.869 10.58 25.505zM12.387 25.505h-.57v-3.153h.547v.356c.119-.141.249-.244.391-.31.143-.065.305-.099.488-.099.413 0 .73.12.95.364.22.243.33.59.33 1.043v1.799h-.568v-1.676c0-.334-.063-.582-.186-.744-.125-.162-.317-.242-.577-.242-.282 0-.488.095-.615.285-.127.19-.19.505-.19.942v1.435zM16 23.905c0 .32.106.587.317.804.211.214.47.323.775.323.28 0 .526-.109.739-.325.213-.217.32-.47.32-.76 0-.311-.106-.576-.317-.796-.212-.221-.462-.33-.753-.33-.298 0-.553.104-.764.315-.211.21-.316.466-.316.77zm2.122 1.6v-.39c-.145.152-.307.266-.486.344-.179.077-.37.116-.573.116-.473 0-.868-.158-1.18-.474-.315-.317-.471-.713-.471-1.189 0-.221.038-.432.117-.63.079-.199.19-.375.336-.525.158-.167.333-.29.52-.368.189-.08.404-.12.644-.12.216 0 .415.039.597.114.18.078.347.193.496.348v-.38h.573v3.154h-.573zM21.675 23.914c0-.384-.054-.662-.163-.836-.107-.174-.28-.261-.516-.261-.243 0-.423.087-.539.262-.116.174-.174.445-.174.813v1.613h-.54v-3.153h.505v.369c.105-.141.224-.247.357-.318.132-.069.282-.104.452-.104.23 0 .42.044.571.132.153.088.277.226.375.414.097-.184.226-.32.388-.411.161-.09.357-.135.59-.135.356 0 .641.116.856.349.215.232.322.543.322.93v1.927h-.57v-1.838c0-.268-.059-.478-.177-.627-.117-.15-.283-.223-.495-.223-.245 0-.421.079-.53.238-.107.158-.16.425-.16.802v1.648h-.552v-1.591zM25.622 23.925c0 .315.1.578.3.788.2.21.448.314.745.314.293 0 .539-.105.736-.315.198-.211.297-.475.297-.792 0-.32-.099-.583-.297-.791-.197-.208-.444-.312-.74-.312-.294 0-.541.105-.741.316-.2.211-.3.475-.3.792m-.588.006c0-.223.038-.433.113-.627.076-.194.187-.368.335-.522.158-.17.336-.301.536-.393.198-.092.405-.138.618-.138.23 0 .442.04.639.123.196.082.373.203.531.364.155.16.274.338.357.537.083.198.125.404.125.615 0 .217-.038.427-.116.631-.077.205-.186.384-.325.536-.161.176-.341.31-.541.4-.2.091-.412.137-.639.137-.23 0-.443-.042-.638-.125-.196-.083-.37-.206-.525-.368-.147-.155-.263-.335-.346-.54-.083-.207-.124-.417-.124-.63M29.695 23.946c0 .29.106.544.319.76.213.217.46.326.738.326.304 0 .56-.108.77-.323.211-.215.316-.482.316-.804 0-.3-.106-.557-.318-.769-.212-.21-.466-.315-.762-.315-.29 0-.54.109-.75.328-.209.22-.313.486-.313.797m.023 1.17v.389h-.576V21.33h.57v1.4c.153-.155.321-.27.503-.347.183-.076.381-.115.595-.115.242 0 .455.04.643.12.19.079.363.201.521.368.147.153.26.329.338.526.078.2.118.41.118.63 0 .475-.157.871-.47 1.188-.314.316-.708.474-1.185.474-.202 0-.393-.039-.57-.116-.18-.078-.342-.192-.487-.343M33.322 25.505h.562v-3.153h-.562v3.153zm0-3.523h.562v-.65h-.562v.65zM34.942 25.505L35.505 25.505 35.505 21.331 34.942 21.331zM39.015 23.625c-.07-.26-.192-.46-.366-.603-.173-.142-.381-.213-.624-.213-.248 0-.464.074-.646.22-.182.145-.308.343-.377.596h2.013zm-2.03.51c.048.263.167.477.357.64.19.164.415.246.676.246.188 0 .357-.045.512-.136.153-.09.276-.217.368-.382h.64c-.146.35-.348.62-.61.805-.26.186-.564.279-.91.279-.233 0-.446-.042-.639-.124-.193-.082-.368-.206-.524-.37-.148-.155-.263-.335-.346-.54-.083-.206-.125-.416-.125-.63 0-.222.038-.429.112-.622.077-.193.188-.369.335-.528.157-.172.335-.301.53-.388.198-.087.413-.13.646-.13.277 0 .535.064.773.193.237.129.434.31.589.54.092.144.16.3.204.472.044.171.066.366.066.585v.09h-2.654z" transform="translate(-451 -696) translate(435 280) translate(0 400) translate(16 16) translate(20 4)"/>
                        </g>
                    </g>
                </g>
            </g>
        </g>
    </g>
</svg>
