<?xml version="1.0" encoding="UTF-8"?>
<svg width="35px" height="8px" viewBox="0 0 35 8" version="1.1" xmlns="http://www.w3.org/2000/svg" xmlns:xlink="http://www.w3.org/1999/xlink">
    <!-- Generator: Sketch 62 (91390) - https://sketch.com -->
    <title>viettel/viettel</title>
    <desc>Created with Sketch.</desc>
    <g id="Home-" stroke="none" stroke-width="1" fill="none" fill-rule="evenodd">
        <g id="viettel" fill="#EF0032" fill-rule="nonzero">
            <g id="Viettel_logo_2021" transform="translate(0.371482, 0.773170)">
                <path d="M7.25897658,0.0207483972 C7.25897658,0.0207483972 6.92330486,0.0435891099 6.92289449,0.338511343 L6.92151663,1.32785375 C6.92151663,1.32785375 7.18413227,0.991826849 7.55365331,0.991826849 L7.99357025,0.991826849 C7.99357025,0.991826849 8.35334174,0.971311893 8.35334174,0.685181516 L8.35334174,0.33173461 C8.35334174,0.33173461 8.35329909,0.0207483972 7.9857109,0.0207483972 L7.25897658,0.0207483972 Z M16.6886348,0.248508743 C16.2888503,0.248508743 16.2889011,0.593272657 16.2889011,0.593272657 L16.2889011,1.37693383 L15.404086,1.37693383 L15.404086,1.90350405 C15.404086,1.90350405 15.404086,2.24202098 15.8038188,2.24202098 L16.2889011,2.24202098 L16.2889011,4.86873075 C16.3151171,5.72976693 17.2653388,6.22936336 18.0780158,6.22936336 L19.1594321,6.22936336 C19.4543549,6.22936336 19.500274,5.8403392 19.500274,5.8403392 L19.500274,5.33886377 C18.9628586,5.43916661 18.5236891,5.33261593 18.5236891,5.33261593 C17.6913509,5.10066742 17.7175806,4.49887119 17.7175806,4.49887119 L17.7175806,2.24202098 L20.5357507,2.24202098 L20.5357507,4.86873075 C20.5619668,5.72976693 21.5122994,6.22936336 22.3249764,6.22936336 L23.4062826,6.22936336 C23.701205,6.22936336 23.7471236,5.8403392 23.7471236,5.8403392 L23.7471236,5.33886377 C23.2097083,5.43916661 22.7706492,5.33261593 22.7706492,5.33261593 C21.938311,5.10066742 21.9645411,4.49887119 21.9645411,4.49887119 L21.9645411,2.24202098 L23.3348816,2.24202098 C23.7351797,2.24202098 23.7274193,1.93156382 23.7274193,1.93156382 L23.7274193,1.37693383 L21.9645411,1.37693383 L21.9645411,0.630967941 C21.9645411,0.270040197 21.6236984,0.248508743 21.6236984,0.248508743 L20.9354844,0.248508743 C20.5356999,0.248508743 20.5357507,0.593272657 20.5357507,0.593272657 L20.5357507,1.37693383 L17.7175806,1.37693383 L17.7175806,0.630967941 C17.7175806,0.270040197 17.3768496,0.248508743 17.3768496,0.248508743 L16.6886348,0.248508743 Z M31.2158627,0.248508743 C30.8160778,0.248508743 30.816129,0.593272657 30.816129,0.593272657 L30.816129,4.86873075 C30.8423446,5.72976693 31.7925663,6.22936336 32.6052433,6.22936336 L33.68666,6.22936336 C33.9815828,6.22936336 34.0275019,5.8403392 34.0275019,5.8403392 L34.0275019,5.33886377 C33.4900861,5.43916661 33.050917,5.33261593 33.050917,5.33261593 C32.2185783,5.10066742 32.244808,4.49887119 32.244808,4.49887119 L32.244808,0.630967941 C32.244808,0.270040197 31.9040771,0.248508743 31.9040771,0.248508743 L31.2158627,0.248508743 Z M11.8788819,1.34261242 C11.643286,1.3431696 10.6534037,1.37135252 9.89427299,1.78861795 C9.39585667,2.06257793 9.0774786,2.52073826 9.06336768,3.47929717 C9.06336768,3.47929717 9.06651586,4.90006991 9.27624211,5.2385899 C9.27624211,5.2385899 9.52230977,5.7216099 10.0723869,6.01314462 C10.3101158,6.13913777 10.7880792,6.22936336 11.144063,6.22936336 L14.6372751,6.22936336 C14.6372751,6.22936336 14.9781166,6.19771206 14.9781166,5.79650233 L14.9781166,5.35771133 L11.5044983,5.35771133 C11.5044983,5.35771133 10.5739211,5.33260532 10.5542595,4.32331317 C10.5532272,4.27040853 10.5530608,4.22790512 10.5523783,4.17909594 L14.4865038,4.17909594 C14.4865038,4.17909594 15.1747182,4.1289892 15.1747182,3.27641979 C15.1747182,3.27641979 15.2861112,2.39870786 14.5717418,1.85331419 C13.857372,1.30792 12.7109309,1.35936489 11.9308004,1.34305037 C11.9308004,1.34305037 11.9125384,1.34256236 11.8788824,1.34261242 L11.8788819,1.34261242 Z M26.8087213,1.34261242 C26.573125,1.34311533 25.5832435,1.37135252 24.8241124,1.78861795 C24.3256956,2.06257793 24.007318,2.52073826 23.9932066,3.47929717 C23.9932066,3.47929717 23.9963548,4.90006991 24.2060811,5.2385899 C24.2060811,5.2385899 24.4521496,5.7216099 25.0022272,6.01314462 C25.2399547,6.13913777 25.7179181,6.22936336 26.0739024,6.22936336 L29.567114,6.22936336 C29.567114,6.22936336 29.9079564,6.19771247 29.9079564,5.79650233 L29.9079564,5.35771133 L26.4343377,5.35771133 C26.4343377,5.35771133 25.5037605,5.33260532 25.4840985,4.32331317 C25.4830747,4.27040853 25.4827889,4.22790512 25.4821063,4.17909594 L29.4163432,4.17909594 C29.4163432,4.17909594 30.104558,4.1289892 30.104558,3.27641979 C30.104558,3.27641979 30.2159501,2.39870786 29.5015812,1.85331419 C28.7872118,1.30792 27.6407703,1.35936489 26.8606394,1.34305037 C26.8606394,1.34305037 26.8423778,1.34256236 26.8087222,1.34261242 L26.8087213,1.34261242 Z M0.0310084967,1.3939813 L2.46915011,5.89508163 C2.46915011,5.89508163 2.59920246,6.27605934 3.32252702,6.27605934 L3.58255855,6.27605934 C3.58255855,6.27605934 4.11896455,6.29933326 4.37903645,5.85622239 C4.63910838,5.41311069 6.8172889,1.3939813 6.8172889,1.3939813 L5.70376933,1.3939813 C5.70376933,1.3939813 5.28120789,1.4562 5.01300914,1.98482435 C4.7448091,2.5134487 3.50949693,5.02438318 3.50949693,5.02438318 C3.50949693,5.02438318 3.41194479,5.16431318 3.33879981,5.02438318 C3.26565424,4.88445317 1.72957119,1.82154832 1.72957119,1.82154832 C1.72957119,1.82154832 1.45325278,1.3939813 1.14441714,1.3939813 L0.0310084967,1.3939813 Z M7.2723717,1.3939813 C7.2723717,1.3939813 6.92289449,1.39403435 6.92289449,1.7749588 L6.92289449,5.90291754 C6.92289449,5.90291754 6.94725405,6.22936336 7.29672528,6.22936336 L8.07693085,6.22936336 C8.07693085,6.22936336 8.35334601,6.21387312 8.35334601,5.80963169 L8.35334601,1.72826303 C8.35334601,1.72826303 8.29635801,1.3939813 8.02003158,1.3939813 L7.2723717,1.3939813 Z M12.1137846,2.20305455 C12.522184,2.20321413 13.1274302,2.26010556 13.4510262,2.56179632 C13.4510262,2.56179632 13.6935677,2.74980832 13.6935677,3.03817669 C13.6935677,3.33281383 13.4969478,3.33285724 13.4379634,3.33285667 L11.2423634,3.33285667 C11.2423634,3.33285667 10.8857789,3.30332323 10.5517133,3.60720703 C10.5585684,3.19189376 10.5804952,3.06327164 10.5804952,3.06327164 C10.5804952,3.06327164 10.573861,2.33601319 11.6945685,2.22317363 C11.6945685,2.22317363 11.8687446,2.20294491 12.1137846,2.20305455 L12.1137846,2.20305455 Z M27.0436244,2.20305456 C27.4520229,2.20321413 28.0572696,2.26010556 28.380866,2.56179632 C28.380866,2.56179632 28.6234067,2.74980832 28.6234067,3.03817669 C28.6234067,3.33281383 28.4267872,3.33285777 28.3678032,3.33285667 L26.1722032,3.33285667 C26.1722032,3.33285667 25.8156187,3.30332323 25.4815526,3.60720703 C25.4884078,3.19189376 25.5103346,3.06327164 25.5103346,3.06327164 C25.5103346,3.06327164 25.5036999,2.33601372 26.6244074,2.22317363 C26.6244074,2.22317363 26.7985844,2.20294654 27.0436244,2.20305456 L27.0436244,2.20305456 Z" id="path851"></path>
            </g>
        </g>
    </g>
</svg>