<svg xmlns="http://www.w3.org/2000/svg" width="80" height="32" viewBox="0 0 80 32">
    <g fill="none" fill-rule="evenodd">
        <g fill="#0096CE">
            <g>
                <g>
                    <g>
                        <g>
                            <path d="M6.658 9.123L4.167 15.758 2.499 15.758.016 9.123 1.68 9.123 3.333 13.634 4.985 9.123zM7.461 8.319L9.121 8.319 9.121 6.64 7.461 6.64zM7.461 15.758L9.121 15.758 9.121 9.11 7.461 9.11z" transform="translate(-451 -856) translate(435 280) translate(0 560) translate(16 16) translate(2.667 6.667)"/>
                            <g>
                                <path d="M10.637 12.544c-.168.136-.462.244-.884.323-.48.089-.79.172-.933.252-.293.15-.443.414-.443.786 0 .478.253.716.754.716.23 0 .47-.051.718-.16.246-.108.433-.236.56-.388.169-.207.252-.513.252-.918 0-.074-.005-.176-.013-.312-.007-.135-.011-.236-.011-.299zm1.798 3.224h-1.572c-.05-.208-.101-.38-.157-.635-.392.427-1.018.639-1.874.639-.592 0-1.082-.135-1.465-.406-.449-.316-.672-.777-.672-1.381 0-.866.34-1.463 1.024-1.788.313-.151.952-.286 1.918-.405.682-.088 1.024-.269 1.024-.548 0-.247-.104-.443-.308-.59-.205-.146-.444-.221-.718-.221-.282 0-.522.076-.723.228-.227.165-.355.4-.385.701H6.912c.037-.514.16-.932.364-1.247.205-.317.535-.563.992-.737.425-.16.903-.238 1.441-.238 1.817.016 2.726.878 2.726 2.586v4.042zM18.078 12.52c0-1.274-.52-1.914-1.558-1.914-1.013 0-1.52.67-1.52 2.006 0 .56.16 1.006.477 1.341.292.304.643.455 1.056.455.42 0 .772-.156 1.054-.467.328-.35.491-.823.491-1.421m1.855 0c0 .89-.217 1.628-.655 2.212-.507.672-1.23 1.01-2.169 1.02h-.013c-.842 0-1.508-.327-2.122-.981v2.664H13.3V9.15h1.654s-.008.965 0 .974c0 0 .864-.967 2.013-.967.574 0 1.108.156 1.598.467.494.314.845.709 1.055 1.19.21.479.314 1.048.314 1.705M26.57 15.775h-1.704v-4.083c0-.438-.07-.747-.211-.93-.17-.212-.465-.317-.889-.317-.414 0-.737.137-.964.411-.226.275-.342.62-.342 1.037v3.882H20.76V6.636h1.701v3.413c.13-.275.37-.498.72-.662.354-.168.743-.25 1.167-.25.608 0 1.117.156 1.525.47.465.358.698.873.698 1.539v4.629zM40.691 15.775h-1.703v-4.083c0-.438-.07-.747-.211-.93-.17-.212-.465-.317-.889-.317-.414 0-.737.137-.964.411-.226.275-.341.62-.341 1.037v3.882H34.88v-6.65h1.702v.924c.129-.275.369-.498.72-.662.353-.168.741-.25 1.167-.25.608 0 1.115.156 1.525.47.464.358.696.873.696 1.539v4.629zM5.813 15.775H4.11v-4.083c0-.438-.07-.747-.211-.93-.17-.212-.465-.317-.889-.317-.414 0-.737.137-.964.411-.226.275-.341.62-.341 1.037v3.882H.002v-6.65h1.703v.924c.129-.275.368-.498.72-.662.353-.168.741-.25 1.167-.25.608 0 1.116.156 1.524.47.465.358.697.873.697 1.539v4.629zM45.701 11.826c-.041-.424-.181-.76-.424-1.004-.243-.243-.525-.366-.842-.366-.308 0-.576.116-.798.342-.25.244-.402.589-.464 1.028H45.7zm1.67 1.051h-4.257c.039.518.203.916.49 1.2.246.234.548.35.902.35.262 0 .5-.06.707-.187.209-.126.345-.294.407-.508h1.668c-.184.641-.517 1.135-.998 1.487-.478.35-1.047.526-1.705.526-2.063 0-3.094-1.145-3.094-3.437 0-.967.262-1.74.782-2.32.523-.578 1.254-.869 2.198-.869 1.932 0 2.9 1.255 2.9 3.758zM32.294 12.437c0-1.296-.52-1.941-1.557-1.941-1.046 0-1.57.645-1.57 1.941 0 1.295.524 1.943 1.57 1.943 1.038 0 1.557-.648 1.557-1.943m1.738.005c0 1.01-.295 1.82-.887 2.428-.591.61-1.392.912-2.405.912-1.028 0-1.841-.307-2.435-.925-.597-.615-.893-1.42-.893-2.415 0-1 .294-1.81.885-2.426.59-.617 1.406-.925 2.443-.925 1.038 0 1.85.314 2.442.942.567.613.85 1.415.85 2.41" transform="translate(-451 -856) translate(435 280) translate(0 560) translate(16 16) translate(2.667 6.667) translate(9.947)"/>
                                <path d="M64.69 3.407C64.62 1.96 63.435.81 61.987.81l-.02.001c-.789 0-1.571.354-2.11 1.04-.266.338-.44.743-.532 1.164-.099.454-.067.919-.148 1.372-.075.423-.193.836-.355 1.232-.701 1.72-2.274 2.804-4.152 2.804-.914 0-1.81-.292-2.551-.83-1.395-1.01-2.474-2.935-3-4.564-.278-.859-.485-1.66-1.193-2.267-.424-.366-.914-.597-1.418-.696C46.32.024 46.129 0 45.927 0c-.982 0-1.861.469-2.436 1.203l-.005.008c-.014.015-.024.03-.036.046l-.048.066c-.027.036-.051.073-.076.11l-.006.01c-.914 1.395-.666 3.32.608 4.418.419.359.879.525 1.363.607.203.045.417.067.635.067h.002c.531.03 1.076.016 1.609.087 1.866.25 4.126 1.223 4.847 3.122.179.471.295 1.035.295 1.542 0 .274-.04.514-.112.725-.11.471-.322.95-.684 1.216-.602.44-1.407.267-2.026.666-.17.108-.32.25-.445.409-.176.224-.293.478-.356.743-.042.159-.065.324-.065.496 0 1.048.817 1.897 1.826 1.897.216 0 .42-.041.612-.112.307-.111.592-.306.813-.59.364-.464.484-1.054.374-1.601-.098-.503-.056-1.224.286-1.63.322-.381.815-.531 1.288-.604.504-.077 1.03-.021 1.522-.169.438-.129.826-.397 1.11-.757.256-.329.444-.735.518-1.147.428-2.407 1.275-4.194 4.295-4.32.458-.02.923 0 1.355-.18.43-.18.806-.47 1.096-.839.474-.607.67-1.358.605-2.082" transform="translate(-451 -856) translate(435 280) translate(0 560) translate(16 16) translate(2.667 6.667) translate(9.947)"/>
                            </g>
                        </g>
                    </g>
                </g>
            </g>
        </g>
    </g>
</svg>
